<mxfile host="app.diagrams.net" modified="2023-06-04T12:21:36.301Z" agent="Mozilla/5.0 (Windows NT 10.0; Win64; x64; rv:109.0) Gecko/20100101 Firefox/113.0" etag="WNIZeC5xo0X8HOcUgWgj" version="21.3.7" type="device">
  <diagram id="LLbM1HXIpLQcIJlpowdg" name="Страница 1">
    <mxGraphModel dx="1257" dy="671" grid="1" gridSize="10" guides="1" tooltips="1" connect="1" arrows="1" fold="1" page="1" pageScale="1" pageWidth="827" pageHeight="1169" math="0" shadow="0">
      <root>
        <mxCell id="0" />
        <mxCell id="1" parent="0" />
        <mxCell id="i2faKiatH3XFWkAbGLc_-4" value="" style="ellipse;html=1;shape=startState;fillColor=#000000;strokeColor=#000000;" vertex="1" parent="1">
          <mxGeometry x="590" y="10" width="30" height="30" as="geometry" />
        </mxCell>
        <mxCell id="i2faKiatH3XFWkAbGLc_-5" value="" style="edgeStyle=orthogonalEdgeStyle;html=1;verticalAlign=bottom;endArrow=open;endSize=8;strokeColor=#000000;rounded=0;entryX=0.5;entryY=0;entryDx=0;entryDy=0;" edge="1" source="i2faKiatH3XFWkAbGLc_-4" parent="1" target="i2faKiatH3XFWkAbGLc_-6">
          <mxGeometry relative="1" as="geometry">
            <mxPoint x="605" y="100" as="targetPoint" />
          </mxGeometry>
        </mxCell>
        <mxCell id="i2faKiatH3XFWkAbGLc_-8" style="edgeStyle=orthogonalEdgeStyle;rounded=0;orthogonalLoop=1;jettySize=auto;html=1;entryX=0.5;entryY=0;entryDx=0;entryDy=0;" edge="1" parent="1" source="i2faKiatH3XFWkAbGLc_-6" target="i2faKiatH3XFWkAbGLc_-7">
          <mxGeometry relative="1" as="geometry" />
        </mxCell>
        <mxCell id="i2faKiatH3XFWkAbGLc_-6" value="Заполнить данные о поездке" style="rounded=1;whiteSpace=wrap;html=1;arcSize=33;" vertex="1" parent="1">
          <mxGeometry x="545" y="90" width="120" height="60" as="geometry" />
        </mxCell>
        <mxCell id="i2faKiatH3XFWkAbGLc_-10" style="edgeStyle=orthogonalEdgeStyle;rounded=0;orthogonalLoop=1;jettySize=auto;html=1;entryX=0.5;entryY=0;entryDx=0;entryDy=0;" edge="1" parent="1" source="i2faKiatH3XFWkAbGLc_-7" target="i2faKiatH3XFWkAbGLc_-9">
          <mxGeometry relative="1" as="geometry" />
        </mxCell>
        <mxCell id="i2faKiatH3XFWkAbGLc_-7" value="проверка данных" style="rounded=1;whiteSpace=wrap;html=1;arcSize=33;" vertex="1" parent="1">
          <mxGeometry x="545" y="180" width="120" height="60" as="geometry" />
        </mxCell>
        <mxCell id="i2faKiatH3XFWkAbGLc_-11" style="edgeStyle=orthogonalEdgeStyle;rounded=0;orthogonalLoop=1;jettySize=auto;html=1;exitX=0;exitY=0.5;exitDx=0;exitDy=0;" edge="1" parent="1" source="i2faKiatH3XFWkAbGLc_-9">
          <mxGeometry relative="1" as="geometry">
            <mxPoint x="605" y="60" as="targetPoint" />
            <Array as="points">
              <mxPoint x="440" y="308" />
              <mxPoint x="440" y="60" />
            </Array>
          </mxGeometry>
        </mxCell>
        <mxCell id="i2faKiatH3XFWkAbGLc_-15" style="edgeStyle=orthogonalEdgeStyle;rounded=0;orthogonalLoop=1;jettySize=auto;html=1;exitX=0.5;exitY=1;exitDx=0;exitDy=0;entryX=0.5;entryY=0;entryDx=0;entryDy=0;" edge="1" parent="1" source="i2faKiatH3XFWkAbGLc_-9" target="i2faKiatH3XFWkAbGLc_-14">
          <mxGeometry relative="1" as="geometry" />
        </mxCell>
        <mxCell id="i2faKiatH3XFWkAbGLc_-9" value="" style="rhombus;whiteSpace=wrap;html=1;" vertex="1" parent="1">
          <mxGeometry x="577.5" y="280" width="55" height="55" as="geometry" />
        </mxCell>
        <mxCell id="i2faKiatH3XFWkAbGLc_-12" value="[введены неверные данные]" style="text;html=1;strokeColor=none;fillColor=none;align=center;verticalAlign=middle;whiteSpace=wrap;rounded=0;" vertex="1" parent="1">
          <mxGeometry x="412.5" y="305" width="165" height="30" as="geometry" />
        </mxCell>
        <mxCell id="i2faKiatH3XFWkAbGLc_-13" value="[введены верные данные]" style="text;html=1;strokeColor=none;fillColor=none;align=center;verticalAlign=middle;whiteSpace=wrap;rounded=0;" vertex="1" parent="1">
          <mxGeometry x="620" y="335" width="165" height="30" as="geometry" />
        </mxCell>
        <mxCell id="i2faKiatH3XFWkAbGLc_-22" style="edgeStyle=orthogonalEdgeStyle;rounded=0;orthogonalLoop=1;jettySize=auto;html=1;entryX=0.5;entryY=0;entryDx=0;entryDy=0;" edge="1" parent="1" source="i2faKiatH3XFWkAbGLc_-14" target="i2faKiatH3XFWkAbGLc_-16">
          <mxGeometry relative="1" as="geometry" />
        </mxCell>
        <mxCell id="i2faKiatH3XFWkAbGLc_-14" value="выбрать данные" style="rounded=1;whiteSpace=wrap;html=1;arcSize=33;" vertex="1" parent="1">
          <mxGeometry x="545" y="370.5" width="120" height="60" as="geometry" />
        </mxCell>
        <mxCell id="i2faKiatH3XFWkAbGLc_-18" style="edgeStyle=orthogonalEdgeStyle;rounded=0;orthogonalLoop=1;jettySize=auto;html=1;entryX=0.5;entryY=0;entryDx=0;entryDy=0;" edge="1" parent="1" source="i2faKiatH3XFWkAbGLc_-16" target="i2faKiatH3XFWkAbGLc_-17">
          <mxGeometry relative="1" as="geometry" />
        </mxCell>
        <mxCell id="i2faKiatH3XFWkAbGLc_-21" style="edgeStyle=orthogonalEdgeStyle;rounded=0;orthogonalLoop=1;jettySize=auto;html=1;entryX=0.5;entryY=0;entryDx=0;entryDy=0;" edge="1" parent="1" source="i2faKiatH3XFWkAbGLc_-16" target="i2faKiatH3XFWkAbGLc_-20">
          <mxGeometry relative="1" as="geometry" />
        </mxCell>
        <mxCell id="i2faKiatH3XFWkAbGLc_-16" value="" style="rhombus;whiteSpace=wrap;html=1;" vertex="1" parent="1">
          <mxGeometry x="577.5" y="450" width="55" height="55" as="geometry" />
        </mxCell>
        <mxCell id="i2faKiatH3XFWkAbGLc_-26" style="edgeStyle=orthogonalEdgeStyle;rounded=0;orthogonalLoop=1;jettySize=auto;html=1;entryX=0.5;entryY=0;entryDx=0;entryDy=0;" edge="1" parent="1" source="i2faKiatH3XFWkAbGLc_-17" target="i2faKiatH3XFWkAbGLc_-25">
          <mxGeometry relative="1" as="geometry" />
        </mxCell>
        <mxCell id="i2faKiatH3XFWkAbGLc_-17" value="" style="rhombus;whiteSpace=wrap;html=1;" vertex="1" parent="1">
          <mxGeometry x="412.5" y="540" width="55" height="55" as="geometry" />
        </mxCell>
        <mxCell id="i2faKiatH3XFWkAbGLc_-29" style="edgeStyle=orthogonalEdgeStyle;rounded=0;orthogonalLoop=1;jettySize=auto;html=1;entryX=0.5;entryY=0;entryDx=0;entryDy=0;" edge="1" parent="1" source="i2faKiatH3XFWkAbGLc_-20" target="i2faKiatH3XFWkAbGLc_-27">
          <mxGeometry relative="1" as="geometry">
            <mxPoint x="680" y="640" as="targetPoint" />
          </mxGeometry>
        </mxCell>
        <mxCell id="i2faKiatH3XFWkAbGLc_-33" style="edgeStyle=orthogonalEdgeStyle;rounded=0;orthogonalLoop=1;jettySize=auto;html=1;entryX=0.5;entryY=0;entryDx=0;entryDy=0;exitX=1;exitY=0.5;exitDx=0;exitDy=0;" edge="1" parent="1" source="i2faKiatH3XFWkAbGLc_-20" target="i2faKiatH3XFWkAbGLc_-32">
          <mxGeometry relative="1" as="geometry" />
        </mxCell>
        <mxCell id="i2faKiatH3XFWkAbGLc_-20" value="" style="rhombus;whiteSpace=wrap;html=1;" vertex="1" parent="1">
          <mxGeometry x="740" y="540" width="55" height="55" as="geometry" />
        </mxCell>
        <mxCell id="i2faKiatH3XFWkAbGLc_-23" value="[определить потребление топлива]" style="text;html=1;strokeColor=none;fillColor=none;align=center;verticalAlign=middle;whiteSpace=wrap;rounded=0;" vertex="1" parent="1">
          <mxGeometry x="457.5" y="520" width="120" height="30" as="geometry" />
        </mxCell>
        <mxCell id="i2faKiatH3XFWkAbGLc_-24" value="[выбрать автомобиль]" style="text;html=1;strokeColor=none;fillColor=none;align=center;verticalAlign=middle;whiteSpace=wrap;rounded=0;" vertex="1" parent="1">
          <mxGeometry x="632.5" y="520" width="115" height="30" as="geometry" />
        </mxCell>
        <mxCell id="i2faKiatH3XFWkAbGLc_-42" style="edgeStyle=orthogonalEdgeStyle;rounded=0;orthogonalLoop=1;jettySize=auto;html=1;entryX=1;entryY=0.5;entryDx=0;entryDy=0;" edge="1" parent="1" source="i2faKiatH3XFWkAbGLc_-25" target="i2faKiatH3XFWkAbGLc_-40">
          <mxGeometry relative="1" as="geometry">
            <Array as="points">
              <mxPoint x="540" y="768" />
              <mxPoint x="468" y="768" />
            </Array>
          </mxGeometry>
        </mxCell>
        <mxCell id="i2faKiatH3XFWkAbGLc_-25" value="выбрать потребление топлива" style="rounded=1;whiteSpace=wrap;html=1;arcSize=33;" vertex="1" parent="1">
          <mxGeometry x="480" y="640" width="120" height="60" as="geometry" />
        </mxCell>
        <mxCell id="i2faKiatH3XFWkAbGLc_-45" style="edgeStyle=orthogonalEdgeStyle;rounded=0;orthogonalLoop=1;jettySize=auto;html=1;entryX=0;entryY=0.5;entryDx=0;entryDy=0;" edge="1" parent="1" source="i2faKiatH3XFWkAbGLc_-27" target="i2faKiatH3XFWkAbGLc_-44">
          <mxGeometry relative="1" as="geometry" />
        </mxCell>
        <mxCell id="i2faKiatH3XFWkAbGLc_-27" value="выбрать атомобиль" style="rounded=1;whiteSpace=wrap;html=1;arcSize=33;" vertex="1" parent="1">
          <mxGeometry x="617.5" y="640" width="120" height="60" as="geometry" />
        </mxCell>
        <mxCell id="i2faKiatH3XFWkAbGLc_-46" style="edgeStyle=orthogonalEdgeStyle;rounded=0;orthogonalLoop=1;jettySize=auto;html=1;entryX=1;entryY=0.5;entryDx=0;entryDy=0;exitX=0.5;exitY=1;exitDx=0;exitDy=0;" edge="1" parent="1" source="i2faKiatH3XFWkAbGLc_-32" target="i2faKiatH3XFWkAbGLc_-44">
          <mxGeometry relative="1" as="geometry">
            <mxPoint x="850" y="720" as="sourcePoint" />
            <Array as="points">
              <mxPoint x="855" y="768" />
            </Array>
          </mxGeometry>
        </mxCell>
        <mxCell id="i2faKiatH3XFWkAbGLc_-32" value="выбрать расстояние" style="rounded=1;whiteSpace=wrap;html=1;arcSize=33;" vertex="1" parent="1">
          <mxGeometry x="795" y="640" width="120" height="60" as="geometry" />
        </mxCell>
        <mxCell id="i2faKiatH3XFWkAbGLc_-34" value="[выбрать расстояние]" style="text;html=1;strokeColor=none;fillColor=none;align=center;verticalAlign=middle;whiteSpace=wrap;rounded=0;" vertex="1" parent="1">
          <mxGeometry x="785" y="520" width="115" height="30" as="geometry" />
        </mxCell>
        <mxCell id="i2faKiatH3XFWkAbGLc_-37" style="edgeStyle=orthogonalEdgeStyle;rounded=0;orthogonalLoop=1;jettySize=auto;html=1;startArrow=classic;startFill=1;endArrow=none;endFill=0;entryX=0;entryY=0.5;entryDx=0;entryDy=0;" edge="1" parent="1" source="i2faKiatH3XFWkAbGLc_-36" target="i2faKiatH3XFWkAbGLc_-17">
          <mxGeometry relative="1" as="geometry">
            <mxPoint x="410" y="580" as="targetPoint" />
            <Array as="points">
              <mxPoint x="340" y="568" />
            </Array>
          </mxGeometry>
        </mxCell>
        <mxCell id="i2faKiatH3XFWkAbGLc_-41" style="edgeStyle=orthogonalEdgeStyle;rounded=0;orthogonalLoop=1;jettySize=auto;html=1;entryX=0;entryY=0.5;entryDx=0;entryDy=0;" edge="1" parent="1" source="i2faKiatH3XFWkAbGLc_-36" target="i2faKiatH3XFWkAbGLc_-40">
          <mxGeometry relative="1" as="geometry">
            <Array as="points">
              <mxPoint x="340" y="768" />
              <mxPoint x="392" y="768" />
            </Array>
          </mxGeometry>
        </mxCell>
        <mxCell id="i2faKiatH3XFWkAbGLc_-36" value="выбрать тип топлива" style="rounded=1;whiteSpace=wrap;html=1;arcSize=33;" vertex="1" parent="1">
          <mxGeometry x="280" y="640" width="120" height="60" as="geometry" />
        </mxCell>
        <mxCell id="i2faKiatH3XFWkAbGLc_-38" value="[определить тип топлива]" style="text;html=1;strokeColor=none;fillColor=none;align=center;verticalAlign=middle;whiteSpace=wrap;rounded=0;" vertex="1" parent="1">
          <mxGeometry x="310" y="520" width="120" height="30" as="geometry" />
        </mxCell>
        <mxCell id="i2faKiatH3XFWkAbGLc_-48" style="edgeStyle=orthogonalEdgeStyle;rounded=0;orthogonalLoop=1;jettySize=auto;html=1;entryX=0;entryY=0.5;entryDx=0;entryDy=0;" edge="1" parent="1" source="i2faKiatH3XFWkAbGLc_-40" target="i2faKiatH3XFWkAbGLc_-47">
          <mxGeometry relative="1" as="geometry">
            <Array as="points">
              <mxPoint x="440" y="848" />
            </Array>
          </mxGeometry>
        </mxCell>
        <mxCell id="i2faKiatH3XFWkAbGLc_-40" value="" style="rhombus;whiteSpace=wrap;html=1;" vertex="1" parent="1">
          <mxGeometry x="412.5" y="740" width="55" height="55" as="geometry" />
        </mxCell>
        <mxCell id="i2faKiatH3XFWkAbGLc_-49" style="edgeStyle=orthogonalEdgeStyle;rounded=0;orthogonalLoop=1;jettySize=auto;html=1;entryX=1;entryY=0.5;entryDx=0;entryDy=0;" edge="1" parent="1" source="i2faKiatH3XFWkAbGLc_-44" target="i2faKiatH3XFWkAbGLc_-47">
          <mxGeometry relative="1" as="geometry">
            <Array as="points">
              <mxPoint x="765" y="848" />
            </Array>
          </mxGeometry>
        </mxCell>
        <mxCell id="i2faKiatH3XFWkAbGLc_-44" value="" style="rhombus;whiteSpace=wrap;html=1;" vertex="1" parent="1">
          <mxGeometry x="737.5" y="740" width="55" height="55" as="geometry" />
        </mxCell>
        <mxCell id="i2faKiatH3XFWkAbGLc_-51" style="edgeStyle=orthogonalEdgeStyle;rounded=0;orthogonalLoop=1;jettySize=auto;html=1;entryX=0.5;entryY=0;entryDx=0;entryDy=0;" edge="1" parent="1" source="i2faKiatH3XFWkAbGLc_-47" target="i2faKiatH3XFWkAbGLc_-50">
          <mxGeometry relative="1" as="geometry" />
        </mxCell>
        <mxCell id="i2faKiatH3XFWkAbGLc_-47" value="" style="rhombus;whiteSpace=wrap;html=1;" vertex="1" parent="1">
          <mxGeometry x="577.5" y="820" width="55" height="55" as="geometry" />
        </mxCell>
        <mxCell id="i2faKiatH3XFWkAbGLc_-53" style="edgeStyle=orthogonalEdgeStyle;rounded=0;orthogonalLoop=1;jettySize=auto;html=1;" edge="1" parent="1" source="i2faKiatH3XFWkAbGLc_-50" target="i2faKiatH3XFWkAbGLc_-52">
          <mxGeometry relative="1" as="geometry" />
        </mxCell>
        <mxCell id="i2faKiatH3XFWkAbGLc_-50" value="рассчитать данные" style="rounded=1;whiteSpace=wrap;html=1;arcSize=33;" vertex="1" parent="1">
          <mxGeometry x="545" y="930" width="120" height="60" as="geometry" />
        </mxCell>
        <mxCell id="i2faKiatH3XFWkAbGLc_-55" style="edgeStyle=orthogonalEdgeStyle;rounded=0;orthogonalLoop=1;jettySize=auto;html=1;entryX=0.5;entryY=0;entryDx=0;entryDy=0;" edge="1" parent="1" source="i2faKiatH3XFWkAbGLc_-52" target="i2faKiatH3XFWkAbGLc_-54">
          <mxGeometry relative="1" as="geometry" />
        </mxCell>
        <mxCell id="i2faKiatH3XFWkAbGLc_-52" value="оформить отчет" style="rounded=1;whiteSpace=wrap;html=1;arcSize=33;" vertex="1" parent="1">
          <mxGeometry x="545" y="1040" width="120" height="60" as="geometry" />
        </mxCell>
        <mxCell id="i2faKiatH3XFWkAbGLc_-54" value="" style="ellipse;html=1;shape=endState;fillColor=#000000;strokeColor=#050000;" vertex="1" parent="1">
          <mxGeometry x="590" y="1139" width="30" height="30" as="geometry" />
        </mxCell>
      </root>
    </mxGraphModel>
  </diagram>
</mxfile>
